<svg xmlns="http://www.w3.org/2000/svg" xmlns:xlink="http://www.w3.org/1999/xlink" width="634.11" height="573.176" viewBox="0 0 634.11 573.176">
  <defs>
    <linearGradient id="linear-gradient" x1="0.5" x2="0.5" y2="1" gradientUnits="objectBoundingBox">
      <stop offset="0" stop-color="#8100c1"/>
      <stop offset="1" stop-color="#070091"/>
    </linearGradient>
    <linearGradient id="linear-gradient-2" x1="-0.002" y1="0.5" x2="0.997" y2="0.5" gradientUnits="objectBoundingBox">
      <stop offset="0.041" stop-color="#100060"/>
      <stop offset="1" stop-color="#090e96"/>
    </linearGradient>
    <linearGradient id="linear-gradient-3" y1="0.5" x2="1" y2="0.5" gradientUnits="objectBoundingBox">
      <stop offset="0" stop-color="#a1baff"/>
      <stop offset="0.433" stop-color="#fff"/>
    </linearGradient>
    <linearGradient id="linear-gradient-4" x1="0" y1="0.501" x2="1" y2="0.501" xlink:href="#linear-gradient-3"/>
    <linearGradient id="linear-gradient-5" y1="0.5" x2="1" y2="0.5" gradientUnits="objectBoundingBox">
      <stop offset="0" stop-color="#311341"/>
      <stop offset="0.23" stop-color="#3113c2"/>
      <stop offset="0.348" stop-color="#2f18c5"/>
      <stop offset="0.493" stop-color="#2927cc"/>
      <stop offset="0.652" stop-color="#1f40d8"/>
      <stop offset="0.822" stop-color="#1263e9"/>
      <stop offset="0.998" stop-color="#008fff"/>
      <stop offset="1" stop-color="#0090ff"/>
    </linearGradient>
    <linearGradient id="linear-gradient-6" x1="0.436" y1="0.37" x2="0.796" y2="1.066" xlink:href="#linear-gradient-3"/>
    <linearGradient id="linear-gradient-7" x1="0.508" y1="0.11" x2="0.626" y2="0.934" gradientUnits="objectBoundingBox">
      <stop offset="0.041" stop-color="#100022"/>
      <stop offset="1" stop-color="#090e96"/>
    </linearGradient>
    <linearGradient id="linear-gradient-8" x1="0.414" y1="0.124" x2="0.964" y2="0.979" gradientUnits="objectBoundingBox">
      <stop offset="0.041" stop-color="#10003b"/>
      <stop offset="1" stop-color="#090e96"/>
    </linearGradient>
    <linearGradient id="linear-gradient-9" y1="0.5" x2="1" y2="0.5" gradientUnits="objectBoundingBox">
      <stop offset="0" stop-color="#7633ff"/>
      <stop offset="0.159" stop-color="#7137ff"/>
      <stop offset="0.353" stop-color="#6243ff"/>
      <stop offset="0.568" stop-color="#4957ff"/>
      <stop offset="0.794" stop-color="#2672ff"/>
      <stop offset="1" stop-color="#0090ff"/>
    </linearGradient>
    <linearGradient id="linear-gradient-10" x1="0.032" y1="0.357" x2="0.975" y2="0.881" gradientUnits="objectBoundingBox">
      <stop offset="0" stop-color="#7633ff"/>
      <stop offset="0.097" stop-color="#7137ff"/>
      <stop offset="0.216" stop-color="#6243ff"/>
      <stop offset="0.346" stop-color="#4957ff"/>
      <stop offset="0.484" stop-color="#2672ff"/>
      <stop offset="0.61" stop-color="#0090ff"/>
    </linearGradient>
    <linearGradient id="linear-gradient-11" x1="0.066" y1="0.503" x2="1.218" y2="0.86" gradientUnits="objectBoundingBox">
      <stop offset="0.004" stop-color="#7633ff" stop-opacity="0"/>
      <stop offset="0.092" stop-color="#7051ff" stop-opacity="0.086"/>
      <stop offset="0.263" stop-color="#6685ff" stop-opacity="0.259"/>
      <stop offset="0.43" stop-color="#5eb1ff" stop-opacity="0.427"/>
      <stop offset="0.591" stop-color="#57d3ff" stop-opacity="0.588"/>
      <stop offset="0.743" stop-color="#53ebff" stop-opacity="0.741"/>
      <stop offset="0.883" stop-color="#50faff" stop-opacity="0.882"/>
      <stop offset="1" stop-color="#4fffff"/>
    </linearGradient>
    <linearGradient id="linear-gradient-12" y1="0.5" x2="1" y2="0.5" gradientUnits="objectBoundingBox">
      <stop offset="0" stop-color="#a1baff"/>
      <stop offset="0.089" stop-color="#acc2ff"/>
      <stop offset="0.499" stop-color="#d9e3ff"/>
      <stop offset="0.816" stop-color="#f5f7ff"/>
      <stop offset="1" stop-color="#fff"/>
    </linearGradient>
  </defs>
  <g id="Group_1" data-name="Group 1" transform="translate(-1020.35 -275.824)">
    <ellipse id="Ellipse_4" data-name="Ellipse 4" cx="253.5" cy="253" rx="253.5" ry="253" transform="translate(1113 309)" fill="url(#linear-gradient)"/>
    <ellipse id="Ellipse_3" data-name="Ellipse 3" cx="183" cy="34.5" rx="183" ry="34.5" transform="translate(1153 780)" fill="#020464"/>
    <g id="man-developing-website-on-desk" transform="translate(936.93 219)">
      <path id="Path_1" data-name="Path 1" d="M690.59,464.13h80.29a13.607,13.607,0,0,0-4.18-25.53c.01-.22.02-.44.02-.67a14.6,14.6,0,0,0-14.74-14.45,14.8,14.8,0,0,0-2.5.21,20.939,20.939,0,0,0-18.23-10.22,20.655,20.655,0,0,0-19.68,13.39,13.688,13.688,0,0,0-2.65-.27c-7.82,0-14.16,6.73-14.16,15.03a16.313,16.313,0,0,0,.23,2.73c-5.92.38-10.6,4.91-10.6,10.45A10.422,10.422,0,0,0,690.59,464.13Z" transform="translate(-60.7 -4.675)" fill="#fff" opacity="0.1"/>
      <path id="Path_3" data-name="Path 3" d="M503.67,209.55c0,2.06-.65,3.72-1.45,3.72H419.97c-.8,0-1.45-1.67-1.45-3.72s.65-3.72,1.45-3.72h82.25C503.02,205.83,503.67,207.5,503.67,209.55Z" fill="#fff" opacity="0.4"/>
      <path id="Path_4" data-name="Path 4" d="M667.1,175.99a4,4,0,0,1-4.24,3.72H422.76a3.752,3.752,0,1,1,0-7.44h240.1A4.01,4.01,0,0,1,667.1,175.99Zm-83.99,15.82c0,2.06-1.26,3.72-2.81,3.72H421.32c-1.55,0-2.81-1.67-2.81-3.72s1.26-3.72,2.81-3.72H580.3C581.85,188.09,583.11,189.75,583.11,191.81Z" fill="#fff" opacity="0.4"/>
      <path id="Path_5" data-name="Path 5" d="M300.72,582.47v-.86h55.07Zm-17.19,0-47.38-.86h47.38Z" fill="#fff" fill-rule="evenodd"/>
      <path id="Path_6" data-name="Path 6" d="M643.13,507.56s-2.16-13.67-1.95-16.61,1.02-18.47,1.02-18.47l2.09-1.86s-2.06,17.3-1.8,22.41.64,14.53.64,14.53Z" fill="url(#linear-gradient-2)"/>
      <path id="Path_7" data-name="Path 7" d="M554.68,371.79h11.58V600.03H554.68Z" fill="#1289cc" fill-rule="evenodd"/>
      <path id="Path_8" data-name="Path 8" d="M548.99,371.79h11.58V600.03H548.99Z" fill-rule="evenodd"/>
      <path id="Path_9" data-name="Path 9" d="M592.05,371.79h11.53V600.03H592.05Z" fill="#1289cc" fill-rule="evenodd"/>
      <path id="Path_10" data-name="Path 10" d="M586.36,371.79h11.53V600.03H586.36Z" fill-rule="evenodd"/>
      <path id="Path_11" data-name="Path 11" d="M309.53,371.79h11.58V600.03H309.53Z" fill="#125cae" fill-rule="evenodd"/>
      <path id="Path_12" data-name="Path 12" d="M303.85,371.79h11.58V600.03H303.85Z" fill-rule="evenodd"/>
      <path id="Path_13" data-name="Path 13" d="M346.9,371.79h11.53V600.03H346.9Z" fill="#1289cc" fill-rule="evenodd"/>
      <path id="Path_14" data-name="Path 14" d="M341.22,371.79h11.53V600.03H341.22Z" fill-rule="evenodd"/>
      <path id="Path_15" data-name="Path 15" d="M261.49,362.32H625.94v22.61H261.49Z" fill-rule="evenodd"/>
      <path id="Path_16" data-name="Path 16" d="M424.23,280.97l112.16-7.9,1.79,3.93-14.71,80.25H518.3l-110.86,6.8Z" fill-rule="evenodd" fill="url(#linear-gradient-3)"/>
      <path id="Path_17" data-name="Path 17" d="M420.31,273.07H535.99L519.2,356.2H403.51Z" fill-rule="evenodd"/>
      <path id="Path_18" data-name="Path 18" d="M487.79,356.05h31.75v6.26H487.79Z" fill-rule="evenodd" fill="url(#linear-gradient-4)"/>
      <path id="Path_19" data-name="Path 19" d="M380.85,356.05H487.79v6.26H380.85Z" fill="#431ca3" fill-rule="evenodd"/>
      <path id="Path_20" data-name="Path 20" d="M424.23,277.89l-14.86,73.44H515.22l14.86-73.44Z" fill="#3f2759" fill-rule="evenodd"/>
      <path id="Path_21" data-name="Path 21" d="M443.71,362.32c3.58.44,11.13-.7,16.5-4.17,5.32-3.48,9.54-6.78,9.54-6.78s11.59,1.51,12.33-1.14c.32-3.54-15.02-7.73-17.15-7.98-2.19-.25-20.17,2.28-22.01,4.12s.79,15.95.79,15.95Zm-59.93-10.09c3.58.45,11.13-.69,16.45-4.17a76.418,76.418,0,0,0,10.39-8.55s11.58,1.09,11.33,0c-.3-1.04-14.81-7.11-17-7.35-2.14-.25-20.17,2.29-22.01,4.13C381.1,338.11,383.78,352.23,383.78,352.23Z" fill="#fff" fill-rule="evenodd"/>
      <path id="Path_22" data-name="Path 22" d="M404.8,338.22c1.14,1.44,8.4,6.86,7.01,8.94-1.39,2.14-4.72,3.03-8.35.4s-5.91-5.72-4.92-6.76S404.8,338.22,404.8,338.22Z" fill="#fff" fill-rule="evenodd"/>
      <path id="Path_23" data-name="Path 23" d="M250.31,266.61c-11.03,4.47-8.4,25.74-3.38,41,4.97,15.26,56.5,51.28,71.76,55.26,15.26,3.93,74.44-14.56,74.44-14.56,4.02-8.2.55-16.9-6.76-15.01,0,0-57.69,9.04-66.34-.94C313.07,324.35,261.99,261.89,250.31,266.61Z" fill-rule="evenodd" fill="url(#linear-gradient-5)"/>
      <path id="Path_24" data-name="Path 24" d="M297.02,238.98c-18.04,36.32-55.11,24.2-63.85-10.53-8.75-34.69-11.03-64.65,19.38-69.92C285.59,152.81,315.11,202.65,297.02,238.98Z" fill-rule="evenodd" fill="url(#linear-gradient-6)"/>
      <path id="Path_25" data-name="Path 25" d="M240.57,239.78c3.43,10.78,2.38,39.7,2.38,39.7s48.8,14.21,47.31,7.65c-5.96-26.59-8.99-49.84-14.46-54.71-4.52-3.98-15.65,9.39-35.23,7.36Z" fill="#fff" fill-rule="evenodd"/>
      <path id="Path_26" data-name="Path 26" d="M340,567.15s10.48,12.67,24.05,18.34,19.68,8.1,17.49,11.58-19.58,1.84-32.7,2.29c-13.07.45-21.91,1.44-22.36-2.73-.45-4.12,1.64-27.03,1.64-27.03Z" fill-rule="evenodd"/>
      <path id="Path_27" data-name="Path 27" d="M320.92,468.56c.5,14.21,5.32,120.78,5.32,120.78,3.37,3.89,25.65-4.1,27.21-9.51,0,0,9.56-118.63,5.83-119.18-3.67-.49-38.36,7.91-38.36,7.91Z" fill-rule="evenodd" fill="url(#linear-gradient-7)"/>
      <path id="Path_28" data-name="Path 28" d="M454.5,567.65s10.49,12.67,24,18.39c13.57,5.67,19.68,8.05,17.49,11.58-2.19,3.48-19.58,1.79-32.65,2.24-13.12.45-21.96,1.44-22.41-2.68-.45-4.17,1.64-27.08,1.64-27.08Z" fill-rule="evenodd"/>
      <path id="Path_29" data-name="Path 29" d="M248.62,425.67c-1.59,11.08-18.44,28.43,2.09,45.77s152.66,2.68,154.35,5.02c1.69,2.29,34.39,114.72,34.39,114.72s28.29-.89,26.81-12.47c-10.92-30.16-9.12-126.45-31.23-136.99-22.08-10.53-186.41-16.05-186.41-16.05Z" fill-rule="evenodd" fill="url(#linear-gradient-8)"/>
      <path id="Path_30" data-name="Path 30" d="M302.78,269.49c-18.93-5.02-75.51-9.07-83.09,7.11-17.6,37.57-3.59,181.93,20.91,184.31,15.75,1.54,93.93-.85,96.56-29.22C340.6,394.37,306.06,340.4,302.78,269.49Z" fill-rule="evenodd" fill="url(#linear-gradient-9)"/>
      <path id="Path_31" data-name="Path 31" d="M218.18,387.29h19.18V482.5H218.18Z" fill="#fff" fill-rule="evenodd"/>
      <path id="Path_32" data-name="Path 32" d="M214.1,386.52h19.18v95.21H214.1Z" fill-rule="evenodd"/>
      <path id="Path_33" data-name="Path 33" d="M302.78,269.49c-11.03,4.47-8.45,25.79-3.43,41.05,5.02,15.21,56.55,51.23,71.81,55.21,15.26,3.93,76.28-3.77,76.28-3.77,3.98-8.2.55-16.9-6.81-15.01,0,0-59.53-1.74-68.18-11.73-6.9-8.01-58.04-70.47-69.67-65.75Z" fill-rule="evenodd" fill="url(#linear-gradient-10)"/>
      <path id="Path_34" data-name="Path 34" d="M283.6,193.16c-3.53-4.47,6.11,14.21,3.18,22.06.05-8.4-20.32-18.54-12.47,4.27.95,2.78,2.13,14.67,2.13,14.67-.2,4.9-25.26,19.7-33.53,14-7.5-4.37-19.38-21.96-26.98-41.69-7.65-19.73,5.76-29.37,5.76-29.37s-1.84-5.02,4.22-14.46c4.72-7.45,75.09-22.21,71.31,10.28C296.42,179.64,289.37,185.46,283.6,193.16Z" fill-rule="evenodd"/>
      <path id="Path_35" data-name="Path 35" d="M200.88,309.7h72.99c5.28,0,9.64,5.86,9.64,13.02v54.46c0,7.16-4.36,13.02-9.64,13.02H200.88c-5.32,0-9.67-5.86-9.67-13.02V322.72C191.21,315.56,195.56,309.7,200.88,309.7Z" fill="#fff" fill-rule="evenodd"/>
      <path id="Path_37" data-name="Path 37" d="M230.8,581.61H355.68v6.81H230.8Z" fill-rule="evenodd"/>
      <path id="Path_39" data-name="Path 39" d="M238.99,266.69c.25-3.18,2.5-12.13,2.5-12.13s36.57-2.49,45.27,1.59c1.36.64,9.81,13.09,9.81,13.09C273.51,265.06,253.78,264.86,238.99,266.69Z" fill="#bcd8fa" fill-rule="evenodd"/>
      <path id="Path_40" data-name="Path 40" d="M424.23,277.89H530.08l-.67,3.29-105.88.2Zm90.45,11.44a.9.9,0,0,1-.9.9H430.09a.9.9,0,1,1,0-1.8h83.69A.9.9,0,0,1,514.68,289.33Zm-16.44,5.11a.829.829,0,0,1-.74.9H428.89a.917.917,0,0,1,0-1.8H497.5A.835.835,0,0,1,498.24,294.44Zm-1.02,6.32a.829.829,0,0,1-.74.9H427.87a.917.917,0,0,1,0-1.8h68.61a.829.829,0,0,1,.74.9Zm14.05,5.53a.9.9,0,0,1-.9.9H426.59a.9.9,0,0,1,0-1.8h83.78A.9.9,0,0,1,511.27,306.29Zm-3.1,13.17a.9.9,0,0,1-.9.9H423.49a.9.9,0,0,1,0-1.8h83.78A.9.9,0,0,1,508.17,319.46Zm-30.33-6.92c0,.5-.25.9-.56.9H425.13c-.31,0-.56-.4-.56-.9s.25-.9.56-.9h52.15C477.59,311.64,477.84,312.04,477.84,312.54ZM460.41,325.2c0,.5-.18.9-.4.9H422.36c-.22,0-.4-.4-.4-.9s.18-.9.4-.9H460C460.23,324.3,460.41,324.7,460.41,325.2Zm28.74,6.94a.822.822,0,0,1-.72.9h-67.4a.922.922,0,0,1,0-1.8h67.4A.829.829,0,0,1,489.15,332.14Z" fill="#1e8191" fill-rule="evenodd"/>
      <path id="Path_41" data-name="Path 41" d="M388.94,108.43a1.32,1.32,0,1,1-1.32-1.32A1.319,1.319,0,0,1,388.94,108.43Zm94.7,81.85a1.325,1.325,0,1,1-1.32-1.32A1.319,1.319,0,0,1,483.64,190.28ZM345.28,119.07a1.32,1.32,0,1,1-1.32-1.33A1.334,1.334,0,0,1,345.28,119.07Zm-106.6-1.32a1.32,1.32,0,1,1-1.32-1.32A1.319,1.319,0,0,1,238.68,117.75ZM614.04,275.26a1.325,1.325,0,1,1-1.32-1.32A1.319,1.319,0,0,1,614.04,275.26Zm4.35-88.25,1.41,2.86,3.15.45-2.28,2.23.54,3.14-2.82-1.48-2.82,1.48.53-3.14-2.28-2.23,3.16-.45ZM291.7,70.98l1.76,3.57,3.94.57-2.85,2.78.67,3.93-3.52-1.86-3.53,1.86.67-3.93-2.85-2.78,3.94-.57ZM686.65,245.8l1.77,3.57,3.94.57-2.85,2.78.67,3.93-3.53-1.86-3.52,1.86.67-3.93-2.85-2.78,3.94-.57Z" fill="#fff"/>
      <circle id="Ellipse_1" data-name="Ellipse 1" cx="4.67" cy="4.67" r="4.67" transform="translate(161.91 230.52)" fill="#fff"/>
      <path id="Path_42" data-name="Path 42" d="M520.94,136.02a46.446,46.446,0,1,0,.18-65.68A46.459,46.459,0,0,0,520.94,136.02Z" fill="#fff"/>
      <path id="Path_43" data-name="Path 43" d="M83.42,354.06l325.95-2.73,7.22.27,98.63-.27,14.86-73.44L133.49,73.52" fill="url(#linear-gradient-11)"/>
      <path id="Path_44" data-name="Path 44" d="M499.63,115.95a19.827,19.827,0,0,0-10.2,2.8,19.989,19.989,0,0,0-27.24-17.23,23.371,23.371,0,0,0-45.76,6.7c0,.33.01.66.03.98h-.03a23.37,23.37,0,0,0,0,46.74,23.609,23.609,0,0,0,2.39-.12h78.63a19.636,19.636,0,0,0,2.18.12,20,20,0,0,0,0-39.99Z" opacity="0.2" fill="url(#linear-gradient-12)"/>
      <path id="Path_38" data-name="Path 38" d="M353.05,599.25a9.115,9.115,0,1,0-9.09-9.09A9.108,9.108,0,0,0,353.05,599.25Zm-62.03-.2a9.115,9.115,0,1,0-9.09-9.09A9.108,9.108,0,0,0,291.02,599.05Zm-59.82.2a9.115,9.115,0,1,0-9.14-9.09A9.14,9.14,0,0,0,231.2,599.25ZM211.5,471.44H372.7a11.055,11.055,0,1,1,0,22.11H211.5a11.055,11.055,0,0,1,0-22.11Z" fill-rule="evenodd"/>
      <path id="Path_36" data-name="Path 36" d="M193.71,309.86H266.7c5.28,0,9.64,5.86,9.64,13.02v54.46c0,7.16-4.36,13.02-9.64,13.02H193.71c-5.32,0-9.67-5.86-9.67-13.02V322.88c-.01-7.16,4.35-13.02,9.67-13.02Zm89.82,176.79h17.19V583.7H283.53Z" fill-rule="evenodd"/>
    </g>
  </g>
</svg>
