<svg xmlns="http://www.w3.org/2000/svg" width="43.065" height="45.744" viewBox="0 0 43.065 45.744">
  <g id="Group_23" data-name="Group 23" transform="translate(-2426.795 -1078.779)">
    <path id="Path_1554" data-name="Path 1554" d="M2459.795,1151.217a3,3,0,0,1-3-3V1132.9a3,3,0,0,1,6,0v15.32A3,3,0,0,1,2459.795,1151.217Z" transform="translate(-18.65 -27.008)" fill="#fff"/>
    <path id="Path_1555" data-name="Path 1555" d="M2459.795,1151.217a3,3,0,0,1-3-3V1132.9a3,3,0,0,1,6,0v15.32A3,3,0,0,1,2459.795,1151.217Z" transform="translate(-30 -33.818)" fill="#fff"/>
    <path id="Path_1556" data-name="Path 1556" d="M0,18.32a3,3,0,0,1-3-3V0A3,3,0,0,1,0-3,3,3,0,0,1,3,0V15.32A3,3,0,0,1,0,18.32Z" transform="translate(2465.762 1099.144) rotate(60)" fill="#fff"/>
    <path id="Path_1557" data-name="Path 1557" d="M0,18.32a3,3,0,0,1-3-3V0A3,3,0,0,1,0-3,3,3,0,0,1,3,0V15.32A3,3,0,0,1,0,18.32Z" transform="translate(2465.762 1112.764) rotate(60)" fill="#fff"/>
    <path id="Path_1558" data-name="Path 1558" d="M0,18.32a3,3,0,0,1-3-3V0A3,3,0,0,1,0-3,3,3,0,0,1,3,0V15.32A3,3,0,0,1,0,18.32Z" transform="translate(2435.092 1089.687) rotate(-60)" fill="#fff"/>
    <path id="Path_1559" data-name="Path 1559" d="M0,18.32a3,3,0,0,1-3-3V0A3,3,0,0,1,0-3,3,3,0,0,1,3,0V15.32A3,3,0,0,1,0,18.32Z" transform="translate(2446.441 1082.877) rotate(-60)" fill="#fff"/>
  </g>
</svg>
