<svg xmlns="http://www.w3.org/2000/svg" width="1000" height="600" viewBox="0 0 1000 600">
  <g id="Group_56" data-name="Group 56" transform="translate(-4271 987)">
    <rect id="Rectangle_48" data-name="Rectangle 48" width="1000" height="600" transform="translate(4271 -987)" fill="#e5b04b"/>
    <g id="Group_55" data-name="Group 55" transform="translate(24078.891 3580.416)">
      <path id="Path_1896" data-name="Path 1896" d="M133.126,20.909a9.657,9.657,0,0,1,13.969,0l77.013,80.654a9.657,9.657,0,0,1-6.984,16.326H171.317l-5.123-27.457s-.977-4.6-4.717-4.6-4.594,4.6-4.594,4.6v57.076L150,147.5l-5.452-57.07s-.492-4.658-4.483-4.607-4.523,4.607-4.523,4.607l-5.365,57.076-7.129-.006-.024-57.07s-.738-4.679-4.648-4.607-4.538,4.607-4.538,4.607l-5.251,27.457H63.1a9.657,9.657,0,0,1-6.984-16.326Z" transform="translate(-19448 -4376)" fill="#fff"/>
      <path id="Path_1894" data-name="Path 1894" d="M19.314,0c6.364,0,17.834,1.092,17.834,1.092L28.4,48.411s.318,11.09,6.069,18.971S51.4,79.933,51.4,79.933V100.19H19.314A19.314,19.314,0,0,1,0,80.876V19.314A19.314,19.314,0,0,1,19.314,0Z" transform="translate(-19373.193 -4276.942)" fill="#fff"/>
      <path id="Path_1895" data-name="Path 1895" d="M32.087,0C25.723,0,14.253,1.092,14.253,1.092L23,48.411s-.318,11.09-6.069,18.971S0,79.933,0,79.933V100.19H32.087A19.314,19.314,0,0,0,51.4,80.876V19.314A19.314,19.314,0,0,0,32.087,0Z" transform="translate(-19294.271 -4276.942)" fill="#fff"/>
    </g>
  </g>
</svg>
