<svg xmlns="http://www.w3.org/2000/svg" width="1000" height="600" viewBox="0 0 1000 600">
  <g id="Group_58" data-name="Group 58" transform="translate(-2045 1740)">
    <rect id="Rectangle_49" data-name="Rectangle 49" width="1000" height="600" transform="translate(2045 -1740)" fill="#fff"/>
    <g id="Group_57" data-name="Group 57" transform="translate(2332.287 -1520.124)">
      <path id="Path_1" data-name="Path 1" d="M-23995.777-1445.007a3.455,3.455,0,0,1-1.939-.594,3.47,3.47,0,0,1-.941-4.824l7.656-11.359-26.641,16.267a3.475,3.475,0,0,1-4.414-.661,3.463,3.463,0,0,1-.123-4.459l20.893-26.453-43.924,31.433a3.478,3.478,0,0,1-4.557-.446,3.471,3.471,0,0,1-.16-4.574l37.162-45.679-32.479,22.684a3.477,3.477,0,0,1-4.461-.4,3.471,3.471,0,0,1-.357-4.464l17.889-25.078-14.389,7.519a3.47,3.47,0,0,1-3.986-.547,3.469,3.469,0,0,1-.8-3.946l5.92-13.307a3.468,3.468,0,0,1,4.584-1.763,3.477,3.477,0,0,1,1.77,4.588l-1.869,4.2,18.434-9.63a3.477,3.477,0,0,1,4.232.8,3.472,3.472,0,0,1,.207,4.3l-14.619,20.488,36.3-25.356a3.474,3.474,0,0,1,1.988-.626,3.475,3.475,0,0,1,2.549,1.109,3.474,3.474,0,0,1,.15,4.559l-36.482,44.842,42.832-30.653a3.47,3.47,0,0,1,4.533.428,3.477,3.477,0,0,1,.221,4.553l-24.088,30.486,23.654-14.442a3.479,3.479,0,0,1,4.324.565,3.48,3.48,0,0,1,.369,4.344l-16.549,24.567A3.489,3.489,0,0,1-23995.777-1445.007Z" transform="translate(24094.328 1562.68)" fill="#011221"/>
      <text id="Scrawl" transform="translate(155.748 102.624)" fill="#011221" font-size="65" font-family="Poppins-Bold, Poppins" font-weight="700"><tspan x="0" y="0">Scrawl</tspan></text>
    </g>
  </g>
</svg>
