<svg xmlns="http://www.w3.org/2000/svg" width="1000" height="600" viewBox="0 0 1000 600">
  <g id="Group_54" data-name="Group 54" transform="translate(-3158 987)">
    <rect id="Rectangle_47" data-name="Rectangle 47" width="1000" height="600" transform="translate(3158 -987)" fill="#2f4637"/>
    <g id="Group_134" data-name="Group 134" transform="translate(3395.849 -756.124)">
      <g id="Group_133" data-name="Group 133" transform="translate(262.178 -2.002)">
        <g id="Group_132" data-name="Group 132">
          <path id="Path_354" data-name="Path 354" d="M-9507.17-19821.078l.094-4.7c0-.084.172-8.551.492-17.414.658-18.234,1.293-20.361,1.529-21.162l.014-.037a41.455,41.455,0,0,1,9.043-15.437,59.865,59.865,0,0,1,12.293-10.2,72.381,72.381,0,0,1,15.549-7.527l.266-.084.279-.027,203.188-20.043c.761-.09,5.918-.545,8.643,2.885a6.941,6.941,0,0,1,1.465,4.016,12.612,12.612,0,0,1-.9,5.082c-.129.359-.26.717-.389,1.072-1.738,4.773-3.381,9.283-6.662,13.205a23.467,23.467,0,0,1-6.459,5.365,35.629,35.629,0,0,1-9.738,3.66c-7.086,1.654-18.16,3.623-28.9,5.139-5.023.709-9.517,1.254-13,1.58-5.337.49-6.865.346-7.724.117-.83-.221-2.314-.789-4.561-1.646-7.3-2.789-22.454-8.578-32.408-8.578h-.141c-12.81.082-74.705,5.809-77.323,6.051-1.119.16-9.584,1.223-15.461-3.8a40.244,40.244,0,0,1-7.73-8.863l-1.077.107a69.391,69.391,0,0,0-14.137,6.924,54.322,54.322,0,0,0-11.125,9.252,36.057,36.057,0,0,0-7.836,13.344c-.165.572-.723,3.658-1.307,19.793-.168,4.676-.295,9.24-.377,12.51,5.611-3.406,13.62-8.748,16.051-12.32,1.068-1.57,2.64-5.221,4.053-13.664.871-5.219,1.332-10.189,1.529-12.689.07-.9.168-2.021.271-3.207.112-1.291.269-3.092.4-4.76-.1.078-.192.154-.292.232-1.516,1.217-2.937,2.471-3.38,2.91l-3.806-3.828c.742-.74,2.658-2.4,4.455-3.8a32.118,32.118,0,0,1,2.759-1.969c1.18-.73,2.464-1.348,3.831-.9a2.914,2.914,0,0,1,1.974,2.336c.183,1.178-.015,3.984-.56,10.252-.1,1.176-.2,2.285-.266,3.162-.205,2.588-.683,7.74-1.588,13.16-1.281,7.658-2.889,12.828-4.914,15.809-1.939,2.852-6.27,6.5-12.869,10.838-4.776,3.143-8.967,5.479-9.143,5.574Zm180.445-59.727a6.483,6.483,0,0,0,.834.041c2.2,0,8.021-.471,18.209-1.924,10.441-1.484,21.165-3.4,27.988-4.988,6.133-1.432,10.354-3.73,13.281-7.232,2.677-3.2,4.092-7.084,5.73-11.588.131-.361.262-.717.395-1.08.674-1.842.777-3.26.277-3.885-.546-.689-2.057-.914-3.121-.914a6.53,6.53,0,0,0-.672.033l-.064.01-195.68,19.3a34.993,34.993,0,0,0,5.078,5.371,12.324,12.324,0,0,0,7.145,2.639,18.259,18.259,0,0,0,4.035-.076l.1-.018.1-.01c2.631-.242,64.615-5.992,77.873-6.076h.174c4.818,0,10.844,1.1,18.42,3.367,6.211,1.857,12.048,4.086,15.913,5.563C-9328.895-19881.574-9327.312-19880.969-9326.725-19880.8Z" transform="translate(9518.425 19917.773)" fill="#fff"/>
          <path id="Path_355" data-name="Path 355" d="M-9279.917-19833.619a17.514,17.514,0,0,1-2.677-.213c-8.553-1.33-139.457-17.551-140.78-17.715l-.164-.021-.162-.039a12.3,12.3,0,0,1-3.12-1.328c-2.482-1.523-3.611-3.793-3.094-6.227.814-3.838,2.015-5.187,3.5-6.551,1.264-1.158,2.627-2.174,2.682-2.217l3.222,4.334-1.609-2.168,1.609,2.168c-.012.008-1.2.9-2.255,1.863-.869.8-1.348,1.234-1.867,3.672a2.969,2.969,0,0,0,1.079.768,7.259,7.259,0,0,0,1.047.414c7.784.965,132.2,16.385,140.737,17.711a12.169,12.169,0,0,0,1.853.15,7.551,7.551,0,0,0,4.806-1.537,6.844,6.844,0,0,0,1.841-2.2l6.008-17.555,5.108,1.75-6.08,17.764-.033.078a11.77,11.77,0,0,1-3.214,4.168A12.836,12.836,0,0,1-9279.917-19833.619Z" transform="translate(9482.44 19896.49)" fill="#fff"/>
          <path id="Path_356" data-name="Path 356" d="M-9255.533-19813.312a17.878,17.878,0,0,1-2.611-.193c-8.948-1.287-114.808-22.949-119.311-23.869l-.1-.023-.1-.027a13.472,13.472,0,0,1-2.388-.988,8.334,8.334,0,0,1-3.846-3.676,5.865,5.865,0,0,1-.014-4.961,28.424,28.424,0,0,1,3.57-6.465l4.151,3.455.017-.023a25.21,25.21,0,0,0-2.782,5.17c-.146.336-.095.439-.064.514.319.684,1.8,1.453,2.769,1.762,4.281.877,110.214,22.547,118.874,23.789a10.156,10.156,0,0,0,7.788-1.768,9.567,9.567,0,0,0,2.23-2.293l3.836-9.607,5.014,2-3.989,9.99-.088.156a14.341,14.341,0,0,1-3.791,4.092A15.189,15.189,0,0,1-9255.533-19813.312Z" transform="translate(9432.904 19890.506)" fill="#fff"/>
          <path id="Path_357" data-name="Path 357" d="M-9252.859-19793.543a86.425,86.425,0,0,1-14.743-1.3,101.7,101.7,0,0,1-24.618-7.672c-7.245-3.291-16.167-7.432-23.863-11.078-12.711-6.02-13.307-6.5-13.663-6.791a7.75,7.75,0,0,1-2.187-4.248,11.1,11.1,0,0,1,.179-5.557c.815-2.568,1.086-3.635,1.089-3.645l5.237,1.307c-.012.047-.3,1.2-1.181,3.973a6.236,6.236,0,0,0,.348,4c2.718,1.51,21.059,10.209,36.272,17.121a96.343,96.343,0,0,0,23.309,7.266,76.423,76.423,0,0,0,23.994.5c14.957-2.162,21.2-12.117,21.267-12.219l4.6,2.814a28.96,28.96,0,0,1-6.037,6.533,36.934,36.934,0,0,1-7.771,4.883,40.218,40.218,0,0,1-11.292,3.328A76.238,76.238,0,0,1-9252.859-19793.543Z" transform="translate(9381.391 19882.598)" fill="#fff"/>
          <path id="Path_358" data-name="Path 358" d="M-9205.1-19773.439a39.119,39.119,0,0,1-12.292-1.967,31.324,31.324,0,0,1-8.533-4.184l-.007-.008c-.616-.453-1.453-1.156-2.61-2.131-4.238-3.572-12.129-10.221-19.557-12.959-2.677-.988-4.972-1.641-7-2.215a24.97,24.97,0,0,1-6.605-2.48,7.327,7.327,0,0,1-3.431-6.139,12.84,12.84,0,0,1,1.881-7.8,9.577,9.577,0,0,1,3.758-3.428l2.156,4.951.008,0c-.026.014-2.679,1.482-2.415,5.959.075,1.25.448,1.584.968,1.92a22.591,22.591,0,0,0,5.154,1.824c2.015.574,4.521,1.283,7.394,2.342,8.314,3.07,16.675,10.111,21.166,13.9,1,.84,1.855,1.564,2.331,1.914a26.145,26.145,0,0,0,7.032,3.412,33.768,33.768,0,0,0,10.6,1.693q1.166,0,2.34-.08a15.81,15.81,0,0,0,10.38-5.119,22.124,22.124,0,0,0,3.652-4.937l0,0,4.851,2.373a26.983,26.983,0,0,1-4.5,6.191,21.365,21.365,0,0,1-14.02,6.877C-9203.3-19773.467-9204.2-19773.439-9205.1-19773.439Z" transform="translate(9310.576 19874.146)" fill="#fff"/>
          <g id="Group_131" data-name="Group 131" transform="translate(0 83.526)">
            <path id="Path_359" data-name="Path 359" d="M-9194.007-19711.736v-5.4a45.405,45.405,0,0,0,7.191-.945,41.657,41.657,0,0,0,5.447-1.328,6.226,6.226,0,0,0,.2-1.518,32,32,0,0,0-.1-3.25c-.17-2.5,1.831-4.348,3.948-6.3,1.876-1.73,4-3.693,4.249-5.654.192-1.545-1.3-3.014-3.421-4.92a21.564,21.564,0,0,1-2.237-2.2,4.835,4.835,0,0,1-1.277-3.836c.044-.295.085-.689.13-1.139.322-3.187.923-9.115,6.474-13.881,3.508-3.01,8.9-6.834,14.64-7.971a18.748,18.748,0,0,1,11.072,1.229,51.137,51.137,0,0,1,8.852,5.117,40.817,40.817,0,0,0,8.95,5.029c4.014,1.4,8.98-.168,12.439-1.73a40.275,40.275,0,0,0,6.881-3.977l3.25,4.313a45.471,45.471,0,0,1-7.908,4.584,31.8,31.8,0,0,1-7.729,2.449,17.432,17.432,0,0,1-8.712-.541,45.506,45.506,0,0,1-10.182-5.643,46.337,46.337,0,0,0-7.9-4.611,13.349,13.349,0,0,0-7.971-.92c-3.637.719-7.847,3.059-12.173,6.768-3.912,3.357-4.337,7.553-4.617,10.326-.034.328-.065.645-.1.947a19,19,0,0,0,1.719,1.664,23.124,23.124,0,0,1,3.48,3.629,8.316,8.316,0,0,1,1.693,5.98c-.489,3.918-3.513,6.709-5.941,8.951a18.271,18.271,0,0,0-2.207,2.254,28.04,28.04,0,0,1,.025,4.471c-.246,2.486-1.152,4.174-2.7,5.018l-.007,0c-1.423.775-5.069,1.559-7.117,1.963A53.786,53.786,0,0,1-9194.007-19711.736Z" transform="translate(9194.007 19770.426)" fill="#fff"/>
          </g>
        </g>
        <path id="Path_361" data-name="Path 361" d="M-7999.017-19852.66s-10.879,6.789-12.934,13.422c-.08,1.156-.991,4.086-.705,4.217s1.417-.447,2.328-.807,2.881-.574,3.915-1.471,7.03-4.729,7.4-9.193A24.761,24.761,0,0,0-7999.017-19852.66Z" transform="translate(8034.436 19891.137)" fill="#fff"/>
        <path id="Path_362" data-name="Path 362" d="M-7972.635-19713.066c.7-1.215,2.8-.064,3,.3a3.916,3.916,0,0,1-.637,3.418c-1.01,1.2-1.946,2.174-2.667,2.889s-1.24.879-1.389.615a5.729,5.729,0,0,1,0-2.984,26.441,26.441,0,0,1,1.389-3.937C-7972.552-19713.254-7972.635-19713.066-7972.635-19713.066Z" transform="translate(7983.426 19830.91)" fill="#fff"/>
      </g>
      <g id="Group_133-2" data-name="Group 133" transform="translate(-2.001 -2)">
        <g id="Group_132-2" data-name="Group 132" transform="translate(0 0)">
          <path id="Path_354-2" data-name="Path 354" d="M-9254.177-19821.055l-4.105-2.283c-.175-.1-4.368-2.436-9.147-5.576-6.6-4.34-10.932-7.984-12.871-10.838-2.025-2.979-3.632-8.152-4.914-15.818-.907-5.428-1.385-10.574-1.59-13.162-.066-.861-.161-1.951-.262-3.105-.548-6.3-.746-9.129-.562-10.309a2.91,2.91,0,0,1,1.972-2.33,3,3,0,0,1,.954-.154,5.646,5.646,0,0,1,2.877,1.051,33.017,33.017,0,0,1,2.758,1.969c1.795,1.4,3.711,3.064,4.455,3.8l-3.8,3.834c-.444-.439-1.866-1.7-3.382-2.91l-.292-.232c.128,1.682.285,3.51.4,4.816.1,1.164.2,2.264.266,3.148.2,2.5.657,7.469,1.533,12.693.779,4.666,2.115,10.822,4.053,13.674,2.429,3.57,10.441,8.912,16.055,12.32-.081-3.27-.209-7.836-.38-12.512-.583-16.146-1.143-19.23-1.308-19.8a36.136,36.136,0,0,0-7.836-13.35,54.583,54.583,0,0,0-11.127-9.254,69.528,69.528,0,0,0-14.142-6.924l-1.079-.105a40.1,40.1,0,0,1-7.729,8.861c-5.879,5.025-14.349,3.971-15.466,3.807-2.6-.242-64.524-5.977-77.342-6.053h-.156c-9.978,0-25.139,5.8-32.446,8.6-2.22.848-3.687,1.408-4.514,1.631-.86.229-2.39.375-7.726-.119-3.48-.324-7.976-.869-13-1.578-10.744-1.52-21.817-3.49-28.9-5.146a35.6,35.6,0,0,1-9.743-3.658,23.53,23.53,0,0,1-6.459-5.363c-3.283-3.928-4.926-8.441-6.663-13.219-.128-.352-.257-.709-.388-1.064a12.668,12.668,0,0,1-.9-5.084,6.978,6.978,0,0,1,1.466-4.014c2.028-2.555,5.413-2.951,7.318-2.951a11.034,11.034,0,0,1,1.324.07l203.511,20.072.268.084a72.489,72.489,0,0,1,15.55,7.529,60.047,60.047,0,0,1,12.295,10.2,41.48,41.48,0,0,1,9.044,15.439l.011.033c.24.8.875,2.934,1.536,21.168.32,8.867.492,17.332.494,17.42Zm-244.131-91.312c-1.136,0-2.564.25-3.09.916-.493.629-.389,2.043.283,3.881q.2.539.392,1.074c1.639,4.506,3.056,8.4,5.73,11.6,2.93,3.5,7.152,5.8,13.288,7.232,6.82,1.594,17.547,3.506,27.993,5,10.188,1.449,16.01,1.92,18.212,1.92a5.8,5.8,0,0,0,.833-.041c.585-.164,2.146-.762,3.946-1.451,3.863-1.479,9.7-3.709,15.925-5.574,7.586-2.271,13.624-3.375,18.447-3.375h.193c13.259.078,75.254,5.834,77.887,6.08l.1.01.084.018c.219.031,7,1.01,11.192-2.568a34.71,34.71,0,0,0,5.073-5.367l-195.783-19.312A6.568,6.568,0,0,0-9498.308-19912.367Z" transform="translate(9507.102 19917.764)" fill="#fff"/>
          <path id="Path_355-2" data-name="Path 355" d="M-9412.161-19833.617a12.827,12.827,0,0,1-8.438-2.932,11.746,11.746,0,0,1-3.213-4.17l-.032-.076-.028-.08-6.057-17.687,5.109-1.748,6.011,17.557a6.847,6.847,0,0,0,1.84,2.2,8.314,8.314,0,0,0,6.659,1.385c8.544-1.32,132.966-16.744,140.766-17.711a6.8,6.8,0,0,0,1.124-.451,2.829,2.829,0,0,0,1.007-.732c-.521-2.445-1.025-2.9-1.861-3.664l-.007-.008c-1.051-.965-2.246-1.855-2.258-1.865l3.222-4.332c.059.047,1.421,1.059,2.68,2.215,1.488,1.352,2.691,2.7,3.509,6.549.516,2.438-.613,4.709-3.1,6.232a12.278,12.278,0,0,1-3.123,1.33l-.162.037-.164.023c-1.322.162-132.259,16.389-140.81,17.711A17.32,17.32,0,0,1-9412.161-19833.617Z" transform="translate(9473.773 19896.496)" fill="#fff"/>
          <path id="Path_356-2" data-name="Path 356" d="M-9367.265-19813.3a15.161,15.161,0,0,1-9.169-2.973,14.259,14.259,0,0,1-3.791-4.09l-.088-.158-.067-.164-3.925-9.82,5.013-2,3.836,9.6a9.7,9.7,0,0,0,2.4,2.422,9.764,9.764,0,0,0,5.781,1.789,12.7,12.7,0,0,0,1.837-.135c8.66-1.25,114.6-22.916,118.9-23.8a5.507,5.507,0,0,0,2.767-1.768c.031-.07.082-.174-.063-.514a25.258,25.258,0,0,0-2.779-5.17l.016.023,4.151-3.455a28.336,28.336,0,0,1,3.568,6.465,5.872,5.872,0,0,1-.014,4.961,8.35,8.35,0,0,1-3.844,3.68,13.522,13.522,0,0,1-2.385.988l-.1.029-.1.021c-4.5.924-110.39,22.586-119.341,23.877A18.293,18.293,0,0,1-9367.265-19813.3Z" transform="translate(9454.044 19890.51)" fill="#fff"/>
          <path id="Path_357-2" data-name="Path 357" d="M-9295.865-19793.533a76.132,76.132,0,0,1-10.937-.777,40.171,40.171,0,0,1-11.3-3.336,36.838,36.838,0,0,1-7.771-4.885,29.062,29.062,0,0,1-6.036-6.531l4.6-2.816,0-.01a24.426,24.426,0,0,0,5.043,5.332,31.5,31.5,0,0,0,6.595,4.086,34.915,34.915,0,0,0,9.639,2.822,76.622,76.622,0,0,0,24-.5,96.516,96.516,0,0,0,23.314-7.275c15.2-6.9,33.563-15.607,36.281-17.127a6.208,6.208,0,0,0,.347-4c-.881-2.779-1.169-3.934-1.181-3.98l5.24-1.3c0,.008.271,1.072,1.086,3.643a11.084,11.084,0,0,1,.181,5.555,7.75,7.75,0,0,1-2.184,4.24h0c-.357.293-.957.781-13.67,6.8-7.723,3.658-16.646,7.8-23.869,11.078a101.885,101.885,0,0,1-24.623,7.678A86.374,86.374,0,0,1-9295.865-19793.533Z" transform="translate(9431.473 19882.613)" fill="#fff"/>
          <path id="Path_358-2" data-name="Path 358" d="M-9243.744-19773.432c-.895,0-1.791-.035-2.69-.092a21.36,21.36,0,0,1-14.024-6.873,27.036,27.036,0,0,1-4.5-6.2l4.85-2.373,0-.006a21.989,21.989,0,0,0,3.653,4.943,15.816,15.816,0,0,0,10.379,5.117,34.034,34.034,0,0,0,12.952-1.617,25.915,25.915,0,0,0,7.032-3.412c.476-.35,1.343-1.078,2.35-1.93,4.49-3.777,12.848-10.814,21.156-13.881,2.872-1.059,5.38-1.771,7.395-2.346a22.532,22.532,0,0,0,5.152-1.824c.52-.336.893-.67.968-1.924.265-4.469-2.388-5.941-2.413-5.951h.007l2.156-4.951a9.027,9.027,0,0,1,3.758,3.432,12.824,12.824,0,0,1,1.88,7.793,7.327,7.327,0,0,1-3.43,6.139,24.973,24.973,0,0,1-6.6,2.48c-2.026.578-4.322,1.23-7,2.221-7.423,2.736-15.31,9.375-19.547,12.943-1.168.984-2.011,1.7-2.631,2.148a31.176,31.176,0,0,1-8.543,4.191A39.219,39.219,0,0,1-9243.744-19773.432Z" transform="translate(9402.417 19874.158)" fill="#fff"/>
          <g id="Group_131-2" data-name="Group 131" transform="translate(177.468 83.547)">
            <path id="Path_359-2" data-name="Path 359" d="M-9108.5-19711.725a53.418,53.418,0,0,1-8.354-1.07,34.768,34.768,0,0,1-7.111-1.953l-.009-.006c-1.548-.84-2.457-2.531-2.7-5.021a27.946,27.946,0,0,1,.028-4.473,18.054,18.054,0,0,0-2.206-2.254c-2.431-2.244-5.455-5.037-5.944-8.955a8.289,8.289,0,0,1,1.694-5.979,22.927,22.927,0,0,1,3.48-3.631,18.74,18.74,0,0,0,1.719-1.664c-.037-.3-.068-.623-.1-.955-.28-2.773-.707-6.965-4.616-10.311-4.324-3.717-8.535-6.062-12.179-6.781a13.339,13.339,0,0,0-7.973.918,46.306,46.306,0,0,0-7.9,4.613,45.855,45.855,0,0,1-10.18,5.645,17.478,17.478,0,0,1-8.713.545,31.6,31.6,0,0,1-7.73-2.455,45.671,45.671,0,0,1-7.912-4.582l3.248-4.312a41.14,41.14,0,0,0,6.979,4.02c3.434,1.539,8.362,3.086,12.347,1.688a41.139,41.139,0,0,0,8.95-5.029,51.5,51.5,0,0,1,8.856-5.123,18.784,18.784,0,0,1,11.075-1.223c5.754,1.139,11.141,4.969,14.647,7.979,5.546,4.752,6.147,10.682,6.47,13.865.047.457.088.85.133,1.152a4.82,4.82,0,0,1-1.278,3.832,21.821,21.821,0,0,1-2.239,2.2c-2.124,1.9-3.612,3.367-3.419,4.914.245,1.961,2.372,3.924,4.25,5.66,2.115,1.953,4.115,3.8,3.95,6.3a30.808,30.808,0,0,0-.1,3.256,6.21,6.21,0,0,0,.2,1.521,43.958,43.958,0,0,0,5.446,1.326,45.783,45.783,0,0,0,7.2.945Z" transform="translate(9195.213 19770.426)" fill="#fff"/>
          </g>
        </g>
        <path id="Path_361-2" data-name="Path 361" d="M-8012.55-19852.66s10.881,6.789,12.938,13.434c.081,1.154.992,4.08.705,4.211s-1.418-.453-2.328-.807-2.883-.58-3.917-1.471-7.034-4.734-7.4-9.193A25.068,25.068,0,0,1-8012.55-19852.66Z" transform="translate(8241.302 19891.139)" fill="#fff"/>
        <path id="Path_362-2" data-name="Path 362" d="M-7971.381-19713.066c-.7-1.215-2.8-.064-3,.3a3.916,3.916,0,0,0,.639,3.418c1.007,1.209,1.944,2.174,2.664,2.889s1.239.881,1.389.621a5.739,5.739,0,0,0,0-2.984,25.832,25.832,0,0,0-1.389-3.937C-7971.464-19713.248-7971.381-19713.066-7971.381-19713.066Z" transform="translate(8224.768 19830.936)" fill="#fff"/>
      </g>
    </g>
  </g>
</svg>
