<svg xmlns="http://www.w3.org/2000/svg" width="1000" height="600" viewBox="0 0 1000 600">
  <g id="Group_53" data-name="Group 53" transform="translate(-2045 987)">
    <rect id="Rectangle_46" data-name="Rectangle 46" width="1000" height="600" transform="translate(2045 -987)" fill="#1f2242"/>
    <g id="Group_52" data-name="Group 52" transform="translate(1991.299 -1115.645)">
      <g id="Group_2" data-name="Group 2" transform="translate(413.444 302.309)">
        <path id="Rectangle_19" data-name="Rectangle 19" d="M0,0H221.037a0,0,0,0,1,0,0V0A110.519,110.519,0,0,1,110.519,110.519h0A110.519,110.519,0,0,1,0,0V0A0,0,0,0,1,0,0Z" transform="translate(46.069 175.303) rotate(-45)" fill="#fff"/>
        <path id="Path_1899" data-name="Path 1899" d="M36.652,0A36.652,36.652,0,1,1,0,36.652,36.652,36.652,0,0,1,36.652,0Z" transform="translate(195.913 0)" fill="#fff" opacity="0"/>
        <path id="Path_1898" data-name="Path 1898" d="M56.387,0V56.387A56.387,56.387,0,0,1,0,112.774V56.387A56.387,56.387,0,0,1,56.387,0Z" transform="translate(79.743 141.014) rotate(45)" fill="#fff" opacity="0"/>
        <path id="Rectangle_22" data-name="Rectangle 22" d="M73.3,0h0a0,0,0,0,1,0,0V73.3A73.3,73.3,0,0,1,0,146.606H0a0,0,0,0,1,0,0V73.3A73.3,73.3,0,0,1,73.3,0Z" transform="translate(149.735 71.439) rotate(45)" fill="#fff"/>
        <path id="Rectangle_21" data-name="Rectangle 21" d="M0,0H0A39.471,39.471,0,0,1,39.471,39.471v0a0,0,0,0,1,0,0H0a0,0,0,0,1,0,0V0A0,0,0,0,1,0,0Z" transform="translate(232.565 33.832)" fill="#fff" opacity="0"/>
      </g>
      <path id="Rectangle_25" data-name="Rectangle 25" d="M0,0H221.037a0,0,0,0,1,0,0V0A110.519,110.519,0,0,1,110.519,110.519h0A110.519,110.519,0,0,1,0,0V0A0,0,0,0,1,0,0Z" transform="translate(459.513 477.612) rotate(-45)" fill="#dcd6f7" opacity="0.7"/>
      <rect id="Rectangle_26" data-name="Rectangle 26" width="73.303" height="73.303" rx="36.652" transform="translate(609.358 302.309)" fill="#a6b1e1"/>
      <g id="Rectangle_29" data-name="Rectangle 29" transform="translate(493.188 443.322) rotate(45)" fill="#424874" stroke="#414777" stroke-width="1">
        <path d="M56.387,0h0a0,0,0,0,1,0,0V56.387A56.387,56.387,0,0,1,0,112.774H0a0,0,0,0,1,0,0V56.387A56.387,56.387,0,0,1,56.387,0Z" stroke="none"/>
        <path d="M55.887.5h0a0,0,0,0,1,0,0V56.887A55.387,55.387,0,0,1,.5,112.274h0a0,0,0,0,1,0,0V55.887A55.387,55.387,0,0,1,55.887.5Z" fill="none"/>
      </g>
      <path id="Rectangle_28" data-name="Rectangle 28" d="M77.814,0h0a0,0,0,0,1,0,0V77.814A77.814,77.814,0,0,1,0,155.628H0a0,0,0,0,1,0,0V77.814A77.814,77.814,0,0,1,77.814,0Z" transform="translate(600.17 404.399) rotate(135)" fill="#a6b1e1" opacity="0.7"/>
      <path id="Rectangle_27" data-name="Rectangle 27" d="M0,0H0A39.471,39.471,0,0,1,39.471,39.471v0a0,0,0,0,1,0,0H0a0,0,0,0,1,0,0V0A0,0,0,0,1,0,0Z" transform="translate(646.009 336.141)" fill="#424874"/>
    </g>
  </g>
</svg>
