<svg xmlns="http://www.w3.org/2000/svg" width="1000" height="600" viewBox="0 0 1000 600">
  <g id="Group_63" data-name="Group 63" transform="translate(-4271 1740)">
    <rect id="Rectangle_51" data-name="Rectangle 51" width="1000" height="600" transform="translate(4271 -1740)" fill="#003d2d"/>
    <g id="Group_62" data-name="Group 62" transform="translate(3195.064 -2578.733)">
      <text id="Avni" transform="translate(1666.308 1166.731)" fill="#fff" font-size="79" font-family="Poppins-Bold, Poppins" font-weight="700"><tspan x="-92.114" y="0">Avni</tspan></text>
      <g id="Group_41" data-name="Group 41" transform="translate(1393.563 1071.66)">
        <g id="Group_1" data-name="Group 1" transform="translate(0 0)">
          <path id="Path_37" data-name="Path 37" d="M1160.138-1321a4.145,4.145,0,0,1-4.145-4.145V-1366.6a4.145,4.145,0,0,1,4.145-4.145,4.145,4.145,0,0,1,4.145,4.145v41.446A4.145,4.145,0,0,1,1160.138-1321Z" transform="translate(-1098.794 1370.74)" fill="#fff"/>
          <path id="Path_38" data-name="Path 38" d="M1160.138-1321a4.145,4.145,0,0,1-4.145-4.145V-1366.6a4.145,4.145,0,0,1,4.145-4.145,4.145,4.145,0,0,1,4.145,4.145v41.446A4.145,4.145,0,0,1,1160.138-1321Z" transform="translate(-1098.794 1412.186)" fill="#fff"/>
          <path id="Path_39" data-name="Path 39" d="M1160.138-1321a4.145,4.145,0,0,1-4.145-4.145V-1366.6a4.145,4.145,0,0,1,4.145-4.145,4.145,4.145,0,0,1,4.145,4.145v41.446A4.145,4.145,0,0,1,1160.138-1321Z" transform="translate(-1098.794 1453.632)" fill="#fff"/>
          <path id="Path_33" data-name="Path 33" d="M4.145,70.459A4.145,4.145,0,0,1,0,66.314V4.145a4.145,4.145,0,1,1,8.289,0V66.314A4.145,4.145,0,0,1,4.145,70.459Z" transform="translate(116.751 50.264) rotate(60)" fill="#fff"/>
          <path id="Path_34" data-name="Path 34" d="M4.145,70.459A4.145,4.145,0,0,1,0,66.314V4.145a4.145,4.145,0,1,1,8.289,0V66.314A4.145,4.145,0,0,1,4.145,70.459Z" transform="translate(116.703 91.738) rotate(60)" fill="#fff"/>
          <path id="Path_40" data-name="Path 40" d="M4.145,70.459A4.145,4.145,0,0,1,0,66.314V4.145a4.145,4.145,0,0,1,8.289,0V66.314A4.145,4.145,0,0,1,4.145,70.459Z" transform="translate(1.794 57.441) rotate(-60)" fill="#fff"/>
          <path id="Path_41" data-name="Path 41" d="M4.145,70.459A4.145,4.145,0,0,1,0,66.314V4.145a4.145,4.145,0,0,1,8.289,0V66.314A4.145,4.145,0,0,1,4.145,70.459Z" transform="translate(1.924 98.915) rotate(-60)" fill="#fff"/>
          <path id="Path_36" data-name="Path 36" d="M4.145,49.735A4.145,4.145,0,0,1,0,45.591V4.145a4.145,4.145,0,1,1,8.289,0V45.591A4.145,4.145,0,0,1,4.145,49.735Z" transform="translate(98.756 19.207) rotate(60)" fill="#fff"/>
          <path id="Path_42" data-name="Path 42" d="M4.145,49.735A4.145,4.145,0,0,1,0,45.591V4.145a4.145,4.145,0,0,1,8.289,0V45.591A4.145,4.145,0,0,1,4.145,49.735Z" transform="translate(19.788 26.384) rotate(-60)" fill="#fff"/>
          <path id="Path_35" data-name="Path 35" d="M2097.439-1506.578a4.143,4.143,0,0,1-1.233-.188,4.145,4.145,0,0,1-2.726-5.189c.092-.3,9.169-30.47-4.321-54.142-13.562-23.8-46.388-33.8-46.718-33.9a4.146,4.146,0,0,1-2.792-5.153,4.143,4.143,0,0,1,5.148-2.795c1.476.437,36.33,11.01,51.564,37.744,15.3,26.849,5.46,59.339,5.034,60.709A4.146,4.146,0,0,1,2097.439-1506.578Z" transform="translate(-1982.306 1608.123)" fill="#fff"/>
          <path id="Path_43" data-name="Path 43" d="M2046.7-1506.554a4.142,4.142,0,0,1-3.954-2.912c-.427-1.37-10.266-33.86,5.033-60.709,15.18-26.637,50.1-37.3,51.574-37.736a4.145,4.145,0,0,1,5.156,2.789,4.144,4.144,0,0,1-2.788,5.155c-.33.1-33.189,10.118-46.739,33.9-13.49,23.671-4.412,53.844-4.319,54.146a4.147,4.147,0,0,1-2.733,5.184A4.154,4.154,0,0,1,2046.7-1506.554Z" transform="translate(-2039.237 1608.097)" fill="#fff"/>
        </g>
      </g>
    </g>
  </g>
</svg>
