<svg xmlns="http://www.w3.org/2000/svg" width="47.776" height="50" viewBox="0 0 47.776 50">
  <path id="image-edit" d="M49.078,7.509,43.306,1.737a2.384,2.384,0,0,0-3.373,0L29.008,12.662a2.386,2.386,0,0,0-.7,1.686V20.12a2.385,2.385,0,0,0,2.385,2.385h5.774a2.386,2.386,0,0,0,1.686-.7L49.078,10.882a2.384,2.384,0,0,0,0-3.373ZM35.48,17.735h-2.4v-2.4L41.619,6.8l2.4,2.4ZM42.55,24.8a2.385,2.385,0,0,0-2.385,2.385v5.7l-3.531-3.531a6.632,6.632,0,0,0-9.37,0L25.6,31.024l-5.93-5.93a6.624,6.624,0,0,0-9.361,0L6.771,28.631V15.259a2.388,2.388,0,0,1,2.385-2.385H23.468a2.385,2.385,0,1,0,0-4.771H9.156A7.164,7.164,0,0,0,2,15.259V43.882a7.164,7.164,0,0,0,7.156,7.156H37.779a7.164,7.164,0,0,0,7.156-7.156v-16.7A2.385,2.385,0,0,0,42.55,24.8ZM9.156,46.268a2.388,2.388,0,0,1-2.385-2.385V35.377l6.91-6.91a1.906,1.906,0,0,1,2.615,0l7.557,7.554c.02.022.028.052.049.073L34.075,46.268Zm31.009-2.385a2.317,2.317,0,0,1-.426,1.281L28.971,34.4l1.665-1.665a1.86,1.86,0,0,1,2.624,0l6.9,6.9Z" transform="translate(-2 -1.038)" fill="#fff"/>
</svg>
