<svg xmlns="http://www.w3.org/2000/svg" width="50" height="50" viewBox="0 0 50 50">
  <path id="object-group" d="M36.944,21.986H31.958V17a2.493,2.493,0,0,0-2.493-2.493H17A2.493,2.493,0,0,0,14.507,17V29.465A2.493,2.493,0,0,0,17,31.958h4.986v4.986a2.493,2.493,0,0,0,2.493,2.493H36.944a2.493,2.493,0,0,0,2.493-2.493V24.479A2.493,2.493,0,0,0,36.944,21.986ZM21.986,24.479v2.493H19.493V19.493h7.479v2.493H24.479A2.493,2.493,0,0,0,21.986,24.479Zm12.465,9.972H26.972V26.972h7.479Zm14.958,8.177V11.316a4.986,4.986,0,1,0-6.781-6.781H11.316a4.986,4.986,0,1,0-6.781,6.781V42.628a4.986,4.986,0,1,0,6.781,6.781H42.628a4.986,4.986,0,1,0,6.781-6.781Zm-4.986,0a4.762,4.762,0,0,0-1.795,1.795H11.316a4.762,4.762,0,0,0-1.795-1.795V11.316a4.762,4.762,0,0,0,1.795-1.795H42.628a4.762,4.762,0,0,0,1.795,1.795Z" transform="translate(-1.972 -1.972)" fill="#fff"/>
</svg>
