<svg xmlns="http://www.w3.org/2000/svg" width="50" height="50" viewBox="0 0 50 50">
  <path id="film" d="M49.5,2A2.5,2.5,0,0,0,47,4.5v5H42v-5a2.5,2.5,0,1,0-5,0V7H17V4.5a2.5,2.5,0,1,0-5,0v5H7v-5a2.5,2.5,0,1,0-5,0v45a2.5,2.5,0,0,0,5,0v-5h5v5a2.5,2.5,0,0,0,5,0V47H37v2.5a2.5,2.5,0,0,0,5,0v-5h5v5a2.5,2.5,0,0,0,5,0V4.5A2.5,2.5,0,0,0,49.5,2ZM12,39.5H7v-5h5Zm0-10H7v-5h5Zm0-10H7v-5h5ZM37,42H17V29.5H37Zm0-17.5H17V12H37Zm10,15H42v-5h5Zm0-10H42v-5h5Zm0-10H42v-5h5Z" transform="translate(-2 -2)" fill="#fff"/>
</svg>
