<svg xmlns="http://www.w3.org/2000/svg" width="42.667" height="30" viewBox="0 0 42.667 30">
  <path id="youtube" d="M56.708,68.694a5.361,5.361,0,0,0-3.772-3.8c-3.327-.9-16.67-.9-16.67-.9s-13.342,0-16.67.9a5.361,5.361,0,0,0-3.772,3.8c-.892,3.349-.892,10.336-.892,10.336s0,6.987.892,10.336A5.281,5.281,0,0,0,19.6,93.1c3.327.9,16.67.9,16.67.9s13.342,0,16.67-.9a5.281,5.281,0,0,0,3.772-3.736c.892-3.349.892-10.336.892-10.336S57.6,72.043,56.708,68.694ZM31.9,85.374V72.686L43.054,79.03,31.9,85.374Z" transform="translate(-14.933 -64)" fill="#fff"/>
</svg>
